<svg width="124" height="21" viewBox="0 0 124 21" fill="none" xmlns="http://www.w3.org/2000/svg">
<path fill-rule="evenodd" clip-rule="evenodd" d="M31.7606 6.68823H35.4279V8.14056C35.8043 7.4379 36.4863 6.2439 38.7429 6.2439V10.1536H38.6017C36.6034 10.1536 35.6628 10.8792 35.6628 12.7072V19.6856H31.7606V6.68823" fill="#022C93"/>
<path fill-rule="evenodd" clip-rule="evenodd" d="M40.7415 6.66934H44.3858V8.05134C44.8321 7.41901 45.6543 6.22534 47.9828 6.22534C52.3776 6.22534 52.8243 9.78368 52.8243 11.5413V19.6667H48.9221V12.5713C48.9221 11.1427 48.6169 9.87868 46.8776 9.87868C44.9502 9.87868 44.6447 11.2597 44.6447 12.5943V19.6667H40.7415V6.66934" fill="#022C93"/>
<path fill-rule="evenodd" clip-rule="evenodd" d="M54.8637 19.6667H58.7663V6.6167H54.8637V19.6667Z" fill="#022C93"/>
<path fill-rule="evenodd" clip-rule="evenodd" d="M76.4632 6.66934H80.1302V8.12201C80.5066 7.41901 81.1876 6.22534 83.4438 6.22534V10.1357H83.3036C81.3057 10.1357 80.3651 10.862 80.3651 12.6883V19.6667H76.4632V6.66934" fill="#022C93"/>
<path fill-rule="evenodd" clip-rule="evenodd" d="M103.737 14.7257C103.031 17.676 100.422 20.089 96.8955 20.089C92.9467 20.089 89.9138 16.9977 89.9138 13.1327C89.9138 9.31634 92.8999 6.22534 96.8011 6.22534C100.256 6.22534 103.055 8.49668 103.713 11.6803H99.7637C99.3401 10.7917 98.5645 9.85568 96.9433 9.85568C96.0255 9.80734 95.2499 10.1593 94.6864 10.768C94.1453 11.3777 93.8395 12.2203 93.8395 13.1563C93.8395 15.053 95.0859 16.4583 96.9433 16.4583C98.5645 16.4583 99.3401 15.5227 99.7637 14.7257H103.737" fill="#003B84"/>
<path fill-rule="evenodd" clip-rule="evenodd" d="M105.848 6.66934H109.516V8.12201C109.891 7.41901 110.572 6.22534 112.829 6.22534V10.1357H112.688C110.69 10.1357 109.75 10.862 109.75 12.6883V19.6667H105.848V6.66934" fill="#003B84"/>
<path fill-rule="evenodd" clip-rule="evenodd" d="M9.59161 15.2824C8.97994 15.8921 8.11062 16.2674 7.17003 16.2674C5.3357 16.2674 3.90323 14.9314 3.90323 12.9414V12.9184C3.90323 11.4194 4.95993 9.66274 7.21688 9.66274C8.13405 9.66274 8.95652 9.99007 9.54443 10.5751C10.1317 11.1381 10.5078 11.9341 10.5078 12.8711C10.555 13.8307 10.2019 14.6737 9.59161 15.2824ZM14.1982 2.02307C14.1979 0.95174 13.3262 0.0837402 12.2514 0.0837402C11.176 0.0837402 10.305 0.95174 10.3047 2.02307H10.2966V7.57807C9.87302 7.15674 8.7688 6.03307 6.464 6.03307C3.15069 6.03307 0 8.53841 0 12.9414C0 16.8521 2.58587 19.8961 6.53595 19.8961C9.16866 19.8961 10.1082 18.6091 10.4844 18.0697V18.0524H10.4994C10.4994 19.0691 11.3276 19.8961 12.3491 19.8961C13.37 19.8961 14.1982 19.0691 14.1982 18.0524V2.02307V2.02307Z" fill="#022C93"/>
<path fill-rule="evenodd" clip-rule="evenodd" d="M59.2752 2.51974C59.2752 3.86607 58.18 4.95641 56.8299 4.95641C55.4791 4.95641 54.3842 3.86607 54.3842 2.51974C54.3842 1.17407 55.4791 0.0837402 56.8299 0.0837402C58.18 0.0837402 59.2752 1.17407 59.2752 2.51974" fill="#022C93"/>
<path fill-rule="evenodd" clip-rule="evenodd" d="M29.6763 14.2996C29.9828 11.912 29.4859 9.85096 27.8403 8.09429C26.6176 6.80529 24.9021 6.03296 22.9038 6.03296C18.9316 6.03296 16.063 9.38129 16.063 13.0116C16.063 16.8756 19.2368 19.896 22.9744 19.896C24.3138 19.896 25.6074 19.4973 26.6879 18.726C27.7924 17.9763 28.7099 16.852 29.3454 15.3993H25.4224C25.2735 15.586 25.1058 15.7536 24.9235 15.9036C24.617 16.1993 24.2302 16.4283 23.7139 16.539C23.4294 16.6196 23.1316 16.667 22.8215 16.667C20.9527 16.667 19.4369 15.091 19.4369 13.1476V12.8313C19.4369 10.888 20.9527 9.31163 22.8215 9.31163C22.8348 9.31163 22.8482 9.31396 22.8613 9.31396C22.8837 9.31396 22.9041 9.31096 22.9272 9.31096C24.6966 9.31096 25.5295 10.424 25.7737 11.1096C25.8182 11.194 25.8557 11.2833 25.8959 11.3726H23.3351C22.523 11.3726 21.8655 12.0283 21.8655 12.837C21.8655 13.645 22.523 14.2996 23.3351 14.2996H26.0153C26.0136 14.3076 29.6763 14.2996 29.6763 14.2996" fill="#022C93"/>
<path fill-rule="evenodd" clip-rule="evenodd" d="M74.3792 14.2996C74.6851 11.912 74.1882 9.85096 72.5429 8.09429C71.3199 6.80529 69.605 6.03296 67.6064 6.03296C63.6336 6.03296 60.765 9.38129 60.765 13.0116C60.765 16.8756 63.9394 19.896 67.6773 19.896C69.0164 19.896 70.3101 19.4973 71.3902 18.726C72.4954 17.9763 73.4126 16.852 74.0473 15.3993H70.1247C69.9761 15.586 69.8081 15.7536 69.6261 15.9036C69.3196 16.1993 68.9325 16.4283 68.4162 16.539C68.1321 16.6196 67.8336 16.667 67.5241 16.667C65.655 16.667 64.1395 15.091 64.1395 13.1476V12.8313C64.1395 10.888 65.655 9.31163 67.5241 9.31163C67.5375 9.31163 67.5505 9.31396 67.5639 9.31396C67.5863 9.31396 67.6067 9.31096 67.6288 9.31096C69.3992 9.31096 70.2324 10.424 70.4764 11.1096C70.5209 11.194 70.559 11.2833 70.5978 11.3726H68.0377C67.2253 11.3726 66.5678 12.0283 66.5678 12.837C66.5678 13.645 67.2253 14.2996 68.0377 14.2996H70.7179C70.7163 14.3076 74.3792 14.2996 74.3792 14.2996" fill="#022C93"/>
<path fill-rule="evenodd" clip-rule="evenodd" d="M120.801 0.104736C119.474 0.104736 118.397 1.19007 118.397 2.52807C118.397 3.86807 119.474 4.9524 120.801 4.9524C122.128 4.9524 123.205 3.86807 123.205 2.52807C123.205 1.19007 122.128 0.104736 120.801 0.104736" fill="#003B84"/>
<path fill-rule="evenodd" clip-rule="evenodd" d="M122.72 12.2677C122.72 11.698 122.469 11.1877 122.074 10.8363L118.268 6.22534L115.28 8.64701L118.861 12.986V19.6667H122.72V12.2913H122.719C122.719 12.2833 122.72 12.2757 122.72 12.2677" fill="#003B84"/>
</svg>
