<?xml version="1.0" encoding="utf-8"?>
<!-- Generator: Adobe Illustrator 24.1.0, SVG Export Plug-In . SVG Version: 6.00 Build 0)  -->
<svg version="1.1" id="Calque_1" xmlns="http://www.w3.org/2000/svg" xmlns:xlink="http://www.w3.org/1999/xlink" x="0px" y="0px"
	 viewBox="0 0 956.5 283" style="enable-background:new 0 0 956.5 283;" xml:space="preserve">
<style type="text/css">
	.st0{fill:#FF0014;}
</style>
<g>
	<path class="st0" d="M99.7,0C44.7,0,0,44.7,0,99.7c0,55,44.7,99.7,99.7,99.7s99.7-44.7,99.7-99.7C199.4,44.7,154.6,0,99.7,0z
		 M99.7,151.4c-28.5,0-51.7-23.2-51.7-51.7S71.2,48,99.7,48s51.7,23.2,51.7,51.7S128.2,151.4,99.7,151.4z"/>
	<path class="st0" d="M363.9,14.5C348.8,5.3,331.1,0,312.2,0c-55,0-99.7,44.7-99.7,99.7c0,55,44.7,99.7,99.7,99.7
		c18.9,0,36.6-5.3,51.7-14.5v13c0,17.7-10.4,26.8-19.1,31.3c-25.3,13.2-56.7,2.2-75.9-11.2l-27.5,39.3c20,14,42.4,22.7,64.8,25
		c4.3,0.5,8.6,0.7,12.8,0.7c17.3,0,33.7-3.8,48-11.3c28.6-14.9,44.9-41.8,44.9-73.9V8.4h-48V14.5z M312.2,151.4
		c-28.5,0-51.7-23.2-51.7-51.7S283.7,48,312.2,48s51.7,23.2,51.7,51.7S340.7,151.4,312.2,151.4z"/>
	<path class="st0" d="M649.9,31.6v161.3h48V55.6h47.8v-48h-71.8C660.6,7.6,649.9,18.3,649.9,31.6z"/>
	<path class="st0" d="M909.4,4c-0.2,1.2-16.1,85.9-28.9,150.8c-29.1-6.1-42.8-13.2-46.9-29c-9-35.5-23.2-120.5-23.3-121.3l-47.4,7.9
		c0.6,3.6,14.6,87.9,24.2,125.3c6.1,23.8,21.4,41.5,45.6,52.6c11.6,5.3,24.2,8.8,38.2,11.7c-1.6,7.7-3,14-4.1,18.5
		c-1.1,1.1-9,7.8-38.7,10c-20.4,1.5-39.2-0.1-39.3-0.1l-4.2,47.8c0.7,0.1,10.7,0.9,24.7,0.9c8.4,0,18.1-0.3,28.1-1.3
		c44-4.3,69.6-19.6,75.9-45.4c9.7-39.4,42-212.2,43.4-219.5L909.4,4z"/>
	<path class="st0" d="M579.1,104.6c0,25.8-21,46.7-46.7,46.7c-25.8,0-46.7-21-46.7-46.7V8.4h-48v96.2c0,52.2,42.5,94.7,94.7,94.7
		s94.7-42.5,94.7-94.7V8.4h-48V104.6z"/>
</g>
</svg>
