<svg xmlns="http://www.w3.org/2000/svg" xmlns:xlink="http://www.w3.org/1999/xlink" width="476" height="476" viewBox="0 0 476 476"><defs><style>.a{fill:url(#a);}.b{fill:#fff;}.c{filter:url(#b);}</style><linearGradient id="a" y1="0.012" x2="1" y2="1" gradientUnits="objectBoundingBox"><stop offset="0" stop-color="#eb0055"/><stop offset="1" stop-color="#320196"/></linearGradient><filter id="b" x="0" y="0" width="476" height="476" filterUnits="userSpaceOnUse"><feOffset dy="43" input="SourceAlpha"/><feGaussianBlur stdDeviation="23" result="c"/><feFlood flood-color="#320196" flood-opacity="0.302"/><feComposite operator="in" in2="c"/><feComposite in="SourceGraphic"/></filter></defs><g transform="translate(-307 -6431)"><g class="c" transform="matrix(1, 0, 0, 1, 307, 6431)"><rect class="a" width="338" height="338" rx="60" transform="translate(69 26)"/></g><path class="b" d="M283.358,202.039a12.274,12.274,0,0,1,4.738,5.192,17.06,17.06,0,0,1,1.675,7.726,16.6,16.6,0,0,1-1.657,7.591,12.181,12.181,0,0,1-4.658,5.087,13.36,13.36,0,0,1-7.008,1.841,11.752,11.752,0,0,1-5.3-1.148A10.6,10.6,0,0,1,267.237,225v14.489h-8.2V200.468h8.2v4.2a10.206,10.206,0,0,1,3.86-3.326A11.519,11.519,0,0,1,276.3,200.2a13.458,13.458,0,0,1,7.063,1.841m-3.866,18.373a9.205,9.205,0,0,0,0-11.4,6.536,6.536,0,0,0-5.112-2.209,6.615,6.615,0,0,0-5.143,2.209,9.205,9.205,0,0,0,0,11.427,6.658,6.658,0,0,0,5.143,2.185,6.517,6.517,0,0,0,5.112-2.215m33.193,8.714V225.77a9.2,9.2,0,0,1-3.731,2.768,13.605,13.605,0,0,1-5.278.957,10.189,10.189,0,0,1-7.186-2.455,8.42,8.42,0,0,1-2.663-6.474,7.611,7.611,0,0,1,2.847-6.315c1.9-1.516,4.59-2.277,8.07-2.314h7.886V211.4a4.332,4.332,0,0,0-1.522-3.541,6.843,6.843,0,0,0-4.449-1.227,17.649,17.649,0,0,0-8.518,2.5l-2.559-5.646a33.8,33.8,0,0,1,6.394-2.5,25.215,25.215,0,0,1,6.548-.8q5.756,0,8.923,2.719a9.61,9.61,0,0,1,3.228,7.567l.049,18.7Zm-2.3-6.714a4.787,4.787,0,0,0,2.24-3.068v-2.553h-6.45a6.42,6.42,0,0,0-3.541.773,2.768,2.768,0,0,0-1.141,2.455,3.24,3.24,0,0,0,1.2,2.639,5.008,5.008,0,0,0,3.277.988,7.867,7.867,0,0,0,4.418-1.227M342.3,206.838a13.906,13.906,0,0,0-4.105-.718,4.738,4.738,0,0,0-2.393.528,1.743,1.743,0,0,0-.908,1.6,1.982,1.982,0,0,0,1.227,1.81,23.266,23.266,0,0,0,3.97,1.454A43.264,43.264,0,0,1,345.1,213.3a9.353,9.353,0,0,1,3.406,2.608,6.892,6.892,0,0,1,1.442,4.56,7.726,7.726,0,0,1-3.277,6.634,13.968,13.968,0,0,1-8.389,2.369,22.258,22.258,0,0,1-6.75-1.037,17.526,17.526,0,0,1-5.646-2.958l2.663-5.523a16.784,16.784,0,0,0,4.873,2.639,15.624,15.624,0,0,0,5.093.927,5.309,5.309,0,0,0,2.633-.558,1.841,1.841,0,0,0,.988-1.675,2.129,2.129,0,0,0-1.227-1.921,20.816,20.816,0,0,0-4.026-1.485,41.761,41.761,0,0,1-4.873-1.706,8.7,8.7,0,0,1-3.326-2.584,6.977,6.977,0,0,1-1.387-4.5,7.7,7.7,0,0,1,3.2-6.6,13.331,13.331,0,0,1,8.094-2.344,21.681,21.681,0,0,1,5.861.822,19.582,19.582,0,0,1,5.327,2.375l-2.823,5.591a23.743,23.743,0,0,0-4.633-2.05m27.615,0a13.906,13.906,0,0,0-4.069-.761,4.744,4.744,0,0,0-2.4.528,1.743,1.743,0,0,0-.908,1.6,1.982,1.982,0,0,0,1.227,1.81,23.27,23.27,0,0,0,3.995,1.436,43.261,43.261,0,0,1,5.008,1.786,9.426,9.426,0,0,1,3.412,2.608,6.922,6.922,0,0,1,1.436,4.56,7.726,7.726,0,0,1-3.277,6.634,13.968,13.968,0,0,1-8.389,2.369,22.222,22.222,0,0,1-6.75-1.037,17.5,17.5,0,0,1-5.652-2.958l2.663-5.523a16.815,16.815,0,0,0,4.909,2.639,15.563,15.563,0,0,0,5.087.927,5.308,5.308,0,0,0,2.633-.558,1.841,1.841,0,0,0,.988-1.675,2.129,2.129,0,0,0-1.227-1.921,20.816,20.816,0,0,0-4.026-1.485,41.764,41.764,0,0,1-4.873-1.706,8.7,8.7,0,0,1-3.326-2.584,6.978,6.978,0,0,1-1.387-4.5,7.708,7.708,0,0,1,3.2-6.6,13.331,13.331,0,0,1,8.094-2.344,21.651,21.651,0,0,1,5.861.822,19.582,19.582,0,0,1,5.327,2.375l-2.823,5.591a23.577,23.577,0,0,0-4.633-2.05m-160.72,44.97a11.414,11.414,0,0,0-5.2-1.3,11.15,11.15,0,0,0-9.849,5.75,12.47,12.47,0,0,0,0,11.85,11.132,11.132,0,0,0,4.1,4.265,10.918,10.918,0,0,0,5.75,1.571,12.028,12.028,0,0,0,5.087-1.2,15.955,15.955,0,0,0,4.609-3.222l4.958,5.376a22.516,22.516,0,0,1-7.008,4.909,19.472,19.472,0,0,1-8.07,1.81,19.865,19.865,0,0,1-9.96-2.528,18.527,18.527,0,0,1-7.057-6.959,19.318,19.318,0,0,1-2.559-9.856,18.613,18.613,0,0,1,9.776-16.618,20.607,20.607,0,0,1,10.095-2.5,21.037,21.037,0,0,1,14.728,6.229l-4.909,6.02a14.249,14.249,0,0,0-4.5-3.6m41.521.565v28.658h-8.143V275.98q-2.927,5.382-9.586,5.382a9.877,9.877,0,0,1-7.542-2.958,11.209,11.209,0,0,1-2.792-8.021v-18h8.2v15.655a6,6,0,0,0,1.442,4.265,5.112,5.112,0,0,0,3.94,1.546,5.891,5.891,0,0,0,4.633-2.08,7.83,7.83,0,0,0,1.706-5.222V252.385Zm8.2-10.868h8.2v39.52h-8.2Zm34.145,37.925a13.4,13.4,0,0,1-3.541,1.467,15.5,15.5,0,0,1-3.915.5,9.248,9.248,0,0,1-6.5-2.289,8.393,8.393,0,0,1-2.5-6.554V259.307h-4v-5.646h4v-7.886h8.143v7.886h7.775v5.719h-7.775v11.832c0,2.2.871,3.3,2.608,3.3a9.2,9.2,0,0,0,4-1.068Zm32.187-27.057v28.658h-8.156V275.98q-2.927,5.382-9.592,5.382a9.881,9.881,0,0,1-7.536-2.958,11.2,11.2,0,0,1-2.8-8.021v-18h8.2v15.655a6,6,0,0,0,1.442,4.265,5.112,5.112,0,0,0,3.94,1.546,5.891,5.891,0,0,0,4.633-2.08,7.83,7.83,0,0,0,1.706-5.222V252.385Zm20.03,1.117a11.34,11.34,0,0,1,5.59-1.442v7.726a10.811,10.811,0,0,0-1.276-.055,8.43,8.43,0,0,0-5.989,2.056,7.063,7.063,0,0,0-2.215,5.456v13.8h-8.211V252.385h8.2v5.155a10.433,10.433,0,0,1,3.891-4.044m32.893,2.608q3.6,3.995,3.6,11.132,0,1.276-.055,1.97H361.264a7.272,7.272,0,0,0,7.4,5.756,10.07,10.07,0,0,0,3.891-.773,10.266,10.266,0,0,0,3.357-2.264l4.3,4.369a14.5,14.5,0,0,1-5.3,3.756,17.8,17.8,0,0,1-6.953,1.307,16.569,16.569,0,0,1-7.91-1.81,12.7,12.7,0,0,1-5.216-5.118,16.741,16.741,0,0,1,0-15.311,13.034,13.034,0,0,1,5.222-5.173,15.735,15.735,0,0,1,7.671-1.841q6.922,0,10.518,3.995m-4.13,8.26a6.474,6.474,0,0,0-1.841-4.529,6.137,6.137,0,0,0-4.529-1.706A6.229,6.229,0,0,0,363.3,259.8a7.806,7.806,0,0,0-2.264,4.56Zm-188.7-33.083a.914.914,0,0,1-.908-.8l-3.136-24.792a.928.928,0,0,1,1.841-.233l3.136,24.8a.921.921,0,0,1-.8,1.025h-.117m-9.9-1.915a.921.921,0,0,1-.914-.921V217.9a.921.921,0,1,1,1.841,0v10.537a.921.921,0,0,1-.921.921m29.72-1.424a.933.933,0,0,1-.859-.577l-5.443-13.691a.92.92,0,0,1,1.712-.675l5.419,13.685a.921.921,0,0,1-.515,1.227.933.933,0,0,1-.338.061m7.9-6.634a.914.914,0,0,1-.8-.479l-4-7.272a.921.921,0,1,1,1.614-.89l4,7.278a.914.914,0,0,1-.362,1.227.9.9,0,0,1-.448.117m-20.392-1.344a.92.92,0,0,1-.89-.687l-1.35-5.253a.921.921,0,1,1,1.78-.46l1.35,5.253a.927.927,0,0,1-.663,1.123.988.988,0,0,1-.227,0m-17.232-5.253a.921.921,0,0,1-.914-.921V195.326a.921.921,0,0,1,1.841,0V213.8a.92.92,0,0,1-.921.921m-55.23-2.995a.921.921,0,0,1-.669-1.553l6.094-6.486a.921.921,0,1,1,1.338,1.258l-6.094,6.486a.9.9,0,0,1-.669.295m110.516,0a.9.9,0,0,1-.669-.295l-14.673-15.593a.92.92,0,0,1,1.338-1.227l14.642,15.593a.921.921,0,0,1-.669,1.553m-13.409-1.289a.908.908,0,0,1-.743-.38l-5.462-7.511a.921.921,0,1,1,1.491-1.08l5.462,7.511a.92.92,0,0,1-.209,1.283.878.878,0,0,1-.54.178m-10.788-1.117a.921.921,0,0,1-.81-.479L192.5,184.764a.92.92,0,0,1,1.614-.884l13.255,24.111a.914.914,0,0,1-.362,1.227.9.9,0,0,1-.442.117m-16.612-.233a.927.927,0,0,1-.89-.693l-2.768-10.77a.922.922,0,0,1,1.786-.46l2.768,10.776a.92.92,0,0,1-.663,1.117.761.761,0,0,1-.233.031m7.014-2.05a.921.921,0,0,1-.853-.583l-8.64-21.828a.921.921,0,1,1,1.706-.681l8.647,21.834a.914.914,0,0,1-.515,1.191.951.951,0,0,1-.344.067m40.742-2.737a.92.92,0,0,1-.583-.209l-8.665-7.168a.927.927,0,0,1-.123-1.3.914.914,0,0,1,1.289-.08l8.671,7.168a.92.92,0,0,1-.614,1.626m-108.067-2.6a.927.927,0,0,1-.675-1.553l13.967-14.869a.92.92,0,1,1,1.344,1.258l-13.967,14.869a.9.9,0,0,1-.669.295m-12.654-.436a.921.921,0,0,1-.614-1.626l11.758-9.727a.921.921,0,1,1,1.172,1.418l-11.721,9.7a.92.92,0,0,1-.583.209m92.664-1.411a.933.933,0,0,1-.749-.38l-5.811-7.978a.921.921,0,0,1,1.485-1.08l5.818,7.978a.92.92,0,0,1-.2,1.283.945.945,0,0,1-.54.178m-28.229-.2a.921.921,0,0,1-.914-.8l-1.841-14.44a.927.927,0,1,1,1.841-.227l1.841,14.434a.914.914,0,0,1-.792,1.031h-.117m4.805-5.069a.914.914,0,0,1-.89-.693l-2.412-9.383a.921.921,0,0,1,1.78-.46l2.412,9.389a.914.914,0,0,1-.663,1.117.964.964,0,0,1-.227.031m38.379-1.123a.914.914,0,0,1-.583-.215l-18.625-15.4a.921.921,0,0,1,1.172-1.418l18.613,15.428a.921.921,0,0,1-.614,1.632m-11.476-.552a.908.908,0,0,1-.669-.295l-10.353-11.046a.92.92,0,1,1,1.338-1.264L213.78,191.4a.927.927,0,0,1-.675,1.553m-37.624-1.227a.92.92,0,0,1-.914-.921v-6.462a.921.921,0,0,1,1.841,0V190.8a.92.92,0,0,1-.921.921m-60.4-.509a.92.92,0,0,1-.5-1.694l6.855-4.351a.921.921,0,0,1,.988,1.553l-6.855,4.351a.908.908,0,0,1-.491.141m119.463-.847a.945.945,0,0,1-.491-.141l-7.4-4.7a.92.92,0,1,1,.988-1.553l7.395,4.7a.914.914,0,0,1,.288,1.264.933.933,0,0,1-.779.43m-33.071-1.712a.9.9,0,0,1-.743-.38l-3.068-4.234a.921.921,0,0,1,1.485-1.08l3.068,4.234a.92.92,0,0,1-.2,1.289.939.939,0,0,1-.54.172m-68.565-.552a.921.921,0,0,1-.614-1.626l12.1-10.009a.921.921,0,1,1,1.172,1.418l-12.1,10.009a.92.92,0,0,1-.583.209m-30.463-.847a.921.921,0,0,1-.393-1.755l9.782-4.6a.921.921,0,1,1,.785,1.663l-9.819,4.6a.871.871,0,0,1-.387.092m142.912-1.516a.872.872,0,0,1-.387-.092l-16.8-7.886a.921.921,0,1,1,.779-1.663l16.8,7.9a.921.921,0,0,1-.393,1.755M125.252,184.8a.92.92,0,0,1-.491-1.694l10.119-6.45a.921.921,0,1,1,.988,1.553l-10.126,6.425a.9.9,0,0,1-.491.141m21.883-1.675a.927.927,0,0,1-.675-1.553l1.111-1.178a.92.92,0,1,1,1.338,1.264l-1.1,1.172a.92.92,0,0,1-.669.295m75.819-.1a.914.914,0,0,1-.491-.147l-6.818-4.3a.927.927,0,0,1-.282-1.27.914.914,0,0,1,1.27-.282l6.812,4.3a.92.92,0,0,1-.491,1.7M115.943,180.91a.92.92,0,0,1-.393-1.749l27.21-12.8a.921.921,0,0,1,.786,1.663l-27.21,12.807a.872.872,0,0,1-.393.086m136.333-3.068a.944.944,0,0,1-.282-.049l-13.93-4.523a.921.921,0,0,1,.571-1.749l13.93,4.523a.914.914,0,0,1,.614,1.16.927.927,0,0,1-.878.614m-151.129-.785a.921.921,0,0,1-.282-1.792L119.7,169.11a.927.927,0,0,1,1.16.614.914.914,0,0,1-.614,1.16l-18.815,6.137a.939.939,0,0,1-.288.043m111.878-.35a.9.9,0,0,1-.491-.147l-5.345-3.387a.921.921,0,1,1,.963-1.553l5.339,3.387a.921.921,0,0,1-.491,1.7m-74.3-.473a.92.92,0,0,1-.491-1.694l4.658-2.958a.921.921,0,1,1,.988,1.553l-4.664,2.958a.878.878,0,0,1-.491.141m85.914-.221a.908.908,0,0,1-.393-.086l-16.772-7.892a.921.921,0,1,1,.786-1.663l16.772,7.892a.914.914,0,0,1,.442,1.227.927.927,0,0,1-.835.528m10.267-3.823a.939.939,0,0,1-.288-.043l-21.755-7.069a.92.92,0,0,1,.571-1.749l21.773,7.057a.921.921,0,0,1-.282,1.792m-110.982-2.534a.92.92,0,0,1-.282-1.792l19.232-6.247a.921.921,0,0,1,.565,1.749L124.209,169.6a.915.915,0,0,1-.288.043m-19.226-3.252a.925.925,0,0,1-.172-1.841l9.549-1.841a.922.922,0,0,1,.35,1.81l-9.555,1.841a.817.817,0,0,1-.172,0m138.972-.5a.818.818,0,0,1-.172,0l-16.618-3.173a.921.921,0,1,1,.344-1.8l16.618,3.167a.924.924,0,1,1-.172,1.841m-34.648-2.117a.9.9,0,0,1-.282-.043l-1.154-.374a.921.921,0,1,1,.565-1.749l1.16.374a.921.921,0,0,1-.288,1.792m-89.6-.184a.925.925,0,1,1-.172-1.841l12.543-2.393a.921.921,0,0,1,.344,1.8l-12.543,2.393a.817.817,0,0,1-.172,0m101.194-2.1a.873.873,0,0,1-.178,0l-12.728-2.455a.921.921,0,1,1,.344-1.8l12.727,2.424a.924.924,0,1,1-.166,1.841m-83.883-1.2a.925.925,0,1,1-.172-1.841L143,157.186a.908.908,0,0,1,1.074.73.921.921,0,0,1-.73,1.074l-6.437,1.227a.816.816,0,0,1-.172,0m119.353-2.332h-.068l-12.408-.779a.922.922,0,0,1,.117-1.841l12.408.779a.921.921,0,1,1-.061,1.841m-157.333-.239a.921.921,0,0,1-.055-1.841l20.251-1.276a.922.922,0,0,1,.117,1.841L98.8,157.646h-.061m138.972-.914h-.061l-14.728-.927a.919.919,0,0,1,.117-1.835l14.728.927a.921.921,0,0,1-.055,1.841m-113.793-.669a.921.921,0,1,1-.055-1.841l12.8-.8a.933.933,0,0,1,.976.859.921.921,0,0,1-.859.976l-12.8.8h-.061m95.18-.5h-.055l-11.23-.712a.914.914,0,0,1-.859-.976.927.927,0,0,1,.976-.859l11.23.706a.921.921,0,1,1-.061,1.841m-78.452-.5a.921.921,0,1,1-.055-1.841l2.455-.16a.922.922,0,1,1,.117,1.841l-2.455.16h-.061m2.492-4.228H143.1l-11.242-.681a.927.927,0,0,1-.859-.976.914.914,0,0,1,.976-.859l11.23.706a.921.921,0,1,1-.055,1.841m64.712,0a.921.921,0,0,1-.055-1.841l2.485-.16a.927.927,0,0,1,.976.859.914.914,0,0,1-.859.976l-2.485.16h-.061m6.437-.405a.921.921,0,1,1-.061-1.841l12.8-.8a.922.922,0,1,1,.117,1.841l-12.8.8h-.067m-86.239-.546h-.061l-14.728-.927A.914.914,0,0,1,112.4,148a.927.927,0,0,1,.976-.859l14.728.927a.921.921,0,0,1-.055,1.841m103.937-.565a.921.921,0,1,1-.055-1.841l20.251-1.276a.922.922,0,1,1,.117,1.841l-20.251,1.27h-.061M107.339,148.6h-.055l-12.4-.786a.92.92,0,0,1-.859-.976.933.933,0,0,1,.976-.865l12.408.785a.921.921,0,1,1-.061,1.841m100.513-1.884a.925.925,0,1,1-.172-1.841l6.437-1.227a.92.92,0,0,1,.344,1.8l-6.437,1.227a.817.817,0,0,1-.172,0m-64.712,0a.817.817,0,0,1-.172,0l-12.734-2.455a.922.922,0,0,1,.35-1.81l12.728,2.455a.925.925,0,0,1-.172,1.841m75.917-2.136a.925.925,0,1,1-.172-1.841l12.543-2.393a.92.92,0,0,1,.344,1.8l-12.543,2.393h-.172m-95.119-1.522h-.172l-16.618-3.167a.921.921,0,0,1,.344-1.81l16.618,3.173a.925.925,0,0,1-.172,1.841m83.895-.681a.921.921,0,0,1-.282-1.8l19.226-6.247a.921.921,0,0,1,.571,1.749l-19.208,6.247a.908.908,0,0,1-.282.049m-64.712,0a.908.908,0,0,1-.282-.049l-1.16-.374a.92.92,0,1,1,.571-1.749l1.154.374a.921.921,0,0,1-.282,1.8m93.615-1.178a.924.924,0,1,1-.166-1.841l9.549-1.841a.921.921,0,0,1,.344,1.8l-9.549,1.841a.871.871,0,0,1-.178,0m-98.9-.54a.9.9,0,0,1-.282-.043L115.839,133.5a.921.921,0,0,1,.571-1.749l21.748,7.069a.921.921,0,0,1-.282,1.792m5.284-2.995a.988.988,0,0,1-.393-.086l-16.772-7.9a.921.921,0,1,1,.786-1.663l16.772,7.892a.927.927,0,0,1,.436,1.227.914.914,0,0,1-.828.528m64.712,0a.921.921,0,0,1-.393-1.755l27.21-12.8a.921.921,0,0,1,.779,1.663l-27.2,12.807a.988.988,0,0,1-.393.086m23.184-2.823a.92.92,0,0,1-.282-1.792l18.815-6.137a.923.923,0,0,1,.571,1.755l-18.815,6.137a.969.969,0,0,1-.288.043m-23.418-2.338a.921.921,0,0,1-.5-1.694l4.658-2.958a.921.921,0,0,1,.988,1.553l-4.633,2.982a.908.908,0,0,1-.491.141m-64.294-.031a.921.921,0,0,1-.5-.147l-5.339-3.387a.921.921,0,1,1,.982-1.553l5.345,3.387a.92.92,0,0,1-.491,1.7m-30.684,0a.908.908,0,0,1-.282-.049l-13.93-4.523a.921.921,0,1,1,.571-1.749l13.93,4.523a.921.921,0,0,1-.288,1.8m9.819-4.529a.865.865,0,0,1-.387-.086l-16.8-7.9a.924.924,0,1,1,.792-1.669l16.784,7.941a.921.921,0,0,1-.393,1.749m83.49-.264a.921.921,0,0,1-.614-1.632l12.1-10.009a.921.921,0,1,1,1.172,1.418l-12.077,9.966a.927.927,0,0,1-.583.215m-60.956,0a.908.908,0,0,1-.583-.209l-18.625-15.4A.921.921,0,0,1,127,110.627l18.625,15.4a.92.92,0,0,1-.614,1.626m70.64-.215a.921.921,0,0,1-.5-1.694l10.126-6.419a.916.916,0,1,1,.982,1.546l-10.126,6.394a.908.908,0,0,1-.491.141m-80.771-.313a.914.914,0,0,1-.491-.147l-6.812-4.3a.92.92,0,1,1,.982-1.553l6.812,4.326a.914.914,0,0,1,.288,1.264.927.927,0,0,1-.779.43m13.366-3.252a.914.914,0,0,1-.669-.288l-10.359-11.046a.921.921,0,0,1,1.344-1.227L148.9,122.354a.914.914,0,0,1-.043,1.3.884.884,0,0,1-.614.252m54.537,0a.878.878,0,0,1-.614-.252.914.914,0,0,1-.043-1.3l1.1-1.172a.921.921,0,1,1,1.338,1.258l-1.1,1.178a.914.914,0,0,1-.669.288m35.967-.761a.921.921,0,0,1-.393-1.755l9.788-4.6a.921.921,0,0,1,.779,1.663l-9.782,4.6a.92.92,0,0,1-.393.092m-40.343-1.774a.878.878,0,0,1-.54-.178.914.914,0,0,1-.2-1.283l3.854-5.308a.921.921,0,0,1,1.491,1.08l-3.86,5.308a.908.908,0,0,1-.743.38m-45.823,0a.939.939,0,0,1-.749-.38l-3.068-4.234a.914.914,0,0,1,.2-1.283.927.927,0,0,1,1.289.2l3.068,4.24a.914.914,0,0,1-.2,1.283.945.945,0,0,1-.54.178m10.1-.822a.92.92,0,0,1-.859-.583l-5.848-15.507a.921.921,0,0,1,1.712-.675l5.861,15.483a.92.92,0,0,1-.515,1.2.933.933,0,0,1-.338.061m4.5,0a.933.933,0,0,1-.9-.687l-2.406-9.389a.921.921,0,1,1,1.78-.454l2.412,9.383a.927.927,0,0,1-.663,1.123.988.988,0,0,1-.227,0m16.612,0a.988.988,0,0,1-.227,0,.927.927,0,0,1-.663-1.123l2.166-8.505a.921.921,0,0,1,1.78.46l-2.179,8.481a.921.921,0,0,1-.89.687m9.481,0a.964.964,0,0,1-.442-.11.921.921,0,0,1-.362-1.227l9.365-17.078a.921.921,0,1,1,1.614.884L194.1,120.077a.914.914,0,0,1-.8.473m-13.7,0h-.117a.914.914,0,0,1-.8-1.025l4.3-34.046a.934.934,0,0,1,1.853.233l-4.3,34.04a.914.914,0,0,1-.908.8m-4.093,0a.921.921,0,0,1-.914-.921v-2.4a.921.921,0,0,1,1.841,0v2.4a.921.921,0,0,1-.921.921m12.813,0a.933.933,0,0,1-.338-.061.921.921,0,0,1-.515-1.2l11.789-29.775A.921.921,0,1,1,201,90.2l-11.789,29.769a.914.914,0,0,1-.853.583m-30.6,0a.927.927,0,0,1-.81-.479L143.693,95.966a.921.921,0,0,1,1.614-.884l13.255,24.111a.914.914,0,0,1-.362,1.227.9.9,0,0,1-.442.117m13.7,0a.914.914,0,0,1-.908-.8L168.706,105.3a.928.928,0,0,1,1.841-.233l1.841,14.434a.92.92,0,0,1-.8,1.031h-.117m-47.633-.454a.908.908,0,0,1-.491-.141l-7.4-4.695a.927.927,0,0,1-.282-1.27.914.914,0,0,1,1.27-.282l7.4,4.688a.921.921,0,0,1-.5,1.7m105.214-1.191a.933.933,0,0,1-.779-.43.92.92,0,0,1,.288-1.27l6.855-4.351a.921.921,0,0,1,.988,1.553l-6.861,4.351a.9.9,0,0,1-.491.147m-21.638,0a.927.927,0,0,1-.669-1.553l13.967-14.869a.921.921,0,1,1,1.338,1.227l-13.961,14.918a.921.921,0,0,1-.675.295m14.851-4.719a.921.921,0,0,1-.614-1.626l11.758-9.727a.921.921,0,1,1,1.172,1.418l-11.7,9.727a.92.92,0,0,1-.614.209m-75.113-.307a.927.927,0,0,1-.749-.381l-5.811-7.978a.921.921,0,1,1,1.491-1.08l5.811,7.978a.914.914,0,0,1-.2,1.283.9.9,0,0,1-.54.178m28.333-.221a.921.921,0,0,1-.914-.921V96.924a.921.921,0,0,1,1.841,0v15.79a.92.92,0,0,1-.921.921m28.9-.546a.945.945,0,0,1-.54-.178.914.914,0,0,1-.2-1.283l8.334-11.476a.922.922,0,0,1,1.491,1.086l-8.327,11.476a.921.921,0,0,1-.743.38m-69.51-3.449a.914.914,0,0,1-.669-.288L119.582,93.751a.921.921,0,1,1,1.338-1.227l14.642,15.593a.914.914,0,0,1-.037,1.295.9.9,0,0,1-.614.252m-12.887-1.031a.9.9,0,0,1-.614-.215l-8.683-7.2A.92.92,0,1,1,113.9,99.8l8.665,7.174a.921.921,0,0,1-.583,1.626m41.852-1.184a.921.921,0,0,1-.89-.687l-2.768-10.776a.922.922,0,0,1,1.786-.46l2.762,10.776a.92.92,0,0,1-.663,1.123.951.951,0,0,1-.227,0m23.405-.233a.988.988,0,0,1-.227,0,.927.927,0,0,1-.663-1.123l2.847-11.12a.921.921,0,0,1,1.786.454l-2.847,11.1a.92.92,0,0,1-.9.687m-48.112-4.375a.908.908,0,0,1-.743-.38l-5.462-7.487a.921.921,0,1,1,1.491-1.08l5.456,7.511a.916.916,0,0,1-.743,1.461m85.546-2.277A.92.92,0,0,1,224,98.979l6.094-6.486a.921.921,0,1,1,1.338,1.227l-6.1,6.517a.9.9,0,0,1-.669.295M168.731,99.3a.933.933,0,0,1-.914-.81l-3.111-24.7a.928.928,0,0,1,1.841-.233l3.117,24.688a.921.921,0,0,1-.8,1.025h-.117m46.762-1.442a.878.878,0,0,1-.54-.178.914.914,0,0,1-.2-1.283l3.6-4.952a.921.921,0,1,1,1.485,1.08l-3.6,4.952a.92.92,0,0,1-.743.38m-39.993-4.363a.921.921,0,0,1-.914-.921V76.206a.921.921,0,1,1,1.841,0V92.56a.921.921,0,0,1-.921.921m29.8,5.118a.865.865,0,0,1-.442-.117.92.92,0,0,1-.368-1.227L213.59,80.8a.921.921,0,1,1,1.614.89l-9.076,16.44a.914.914,0,0,1-.8.479M190.97,92.573a.964.964,0,0,1-.227-.031.914.914,0,0,1-.663-1.117L192.934,80.3a.921.921,0,1,1,1.78.46l-2.854,11.12a.914.914,0,0,1-.89.693m-49.094-.853a.921.921,0,0,1-.8-.473l-4-7.278a.921.921,0,0,1,1.614-.884l4,7.272a.927.927,0,0,1-.368,1.227.945.945,0,0,1-.442.11m13,8.193a.933.933,0,0,1-.859-.577l-9.082-22.092a.921.921,0,1,1,1.712-.675l9.082,22.092a.922.922,0,0,1-.853,1.289m4.75-8.868a.914.914,0,0,1-.89-.693L157.39,85.1a.921.921,0,0,1,1.78-.46l1.35,5.253a.914.914,0,0,1-.663,1.123.964.964,0,0,1-.227,0m42.546-5.523a.914.914,0,0,1-.338-.061.927.927,0,0,1-.522-1.227l1.62-4.013a.921.921,0,0,1,1.712.675l-1.62,4.087a.921.921,0,0,1-.853.583m-17.643-4.087h-.117a.92.92,0,0,1-.8-1.025l1.092-8.653a.928.928,0,1,1,1.841.233l-1.1,8.64a.921.921,0,0,1-.914.8M152.622,182.58a.9.9,0,0,1,.54.178.914.914,0,0,1,.2,1.283l-3.854,5.308a.927.927,0,0,1-1.289.2.914.914,0,0,1-.2-1.283l3.86-5.308a.921.921,0,0,1,.743-.38m14.6.822a.761.761,0,0,1,.233.031.921.921,0,0,1,.663,1.117l-2.179,8.481a.92.92,0,1,1-1.78-.46l2.172-8.481a.927.927,0,0,1,.89-.687m-9.475,0a.964.964,0,0,1,.442.11.927.927,0,0,1,.362,1.227l-9.365,17.078a.921.921,0,0,1-1.614-.884l9.352-17.035a.933.933,0,0,1,.81-.473m13.7,0h.117a.921.921,0,0,1,.8,1.025l-4.3,34.046a.928.928,0,1,1-1.841-.233l4.3-34.04a.927.927,0,0,1,.914-.8m-8.72,0a.925.925,0,0,1,.853,1.289l-11.789,29.775a.914.914,0,0,1-1.191.515.927.927,0,0,1-.522-1.227L161.839,184a.933.933,0,0,1,.859-.577m-16.084,7.413a.9.9,0,0,1,.54.178.914.914,0,0,1,.2,1.283l-8.34,11.47a.916.916,0,1,1-1.485-1.074l8.334-11.476a.914.914,0,0,1,.749-.38m17.183,5.928a1.007,1.007,0,0,1,.233,0,.927.927,0,0,1,.663,1.123l-2.854,11.1a.921.921,0,1,1-1.78-.46l2.847-11.1a.914.914,0,0,1,.89-.687m-28.229,9.34a.933.933,0,0,1,.54.178.914.914,0,0,1,.2,1.283l-3.639,4.958a.921.921,0,0,1-1.491-1.08l3.6-4.952a.921.921,0,0,1,.743-.38m10.175-.767a.884.884,0,0,1,.442.117.914.914,0,0,1,.362,1.227l-9.064,16.514a.921.921,0,0,1-1.614-.884l9.076-16.465a.908.908,0,0,1,.8-.479m14.329,6.038a.963.963,0,0,1,.227.031.921.921,0,0,1,.663,1.123l-2.854,11.12a.921.921,0,1,1-1.786-.454l2.86-11.126a.914.914,0,0,1,.89-.693m-11.181,7.039a.828.828,0,0,1,.338.067.914.914,0,0,1,.515,1.191l-1.614,4.087a.921.921,0,0,1-1.712-.675l1.62-4.087a.921.921,0,0,1,.853-.614M166.5,222.48h.117a.914.914,0,0,1,.792,1.025l-1.092,8.653a.914.914,0,0,1-1.025.8.927.927,0,0,1-.8-1.031l1.092-8.647a.921.921,0,0,1,.914-.8" transform="translate(306.973 6450.042)"/></g></svg>